<svg width="445" height="232" viewBox="0 0 445 232" fill="none" xmlns="http://www.w3.org/2000/svg">
<g filter="url(#filter0_iiii_1_578)">
<path d="M210.893 363.472C245.339 355.469 234.997 306.578 265.266 291.402C304.868 271.545 367.389 294.88 400.417 268.447C433.939 241.618 437.976 196.892 431.231 158.573C423.936 117.129 402.581 74.4799 361.607 47.9616C321.115 21.7551 265.468 15.0928 214.459 18.2774C169.26 21.0993 136.199 49.0863 95.591 64.5696C56.3329 79.5383 3.8386 78.8191 -20.2782 107.78C-44.4364 136.791 -40.6439 177.578 -26.7047 211.43C-14.3762 241.37 22.4925 258.705 50.9275 280.705C72.6546 297.515 94.8894 311.998 120.216 325.102C149.567 340.288 178.034 371.106 210.893 363.472Z" fill="#2AB1AD"/>
</g>
<defs>
<filter id="filter0_iiii_1_578" x="-50" y="0" width="494.355" height="394.829" filterUnits="userSpaceOnUse" color-interpolation-filters="sRGB">
<feFlood flood-opacity="0" result="BackgroundImageFix"/>
<feBlend mode="normal" in="SourceGraphic" in2="BackgroundImageFix" result="shape"/>
<feColorMatrix in="SourceAlpha" type="matrix" values="0 0 0 0 0 0 0 0 0 0 0 0 0 0 0 0 0 0 127 0" result="hardAlpha"/>
<feOffset dy="16"/>
<feGaussianBlur stdDeviation="16"/>
<feComposite in2="hardAlpha" operator="arithmetic" k2="-1" k3="1"/>
<feColorMatrix type="matrix" values="0 0 0 0 0 0 0 0 0 0 0 0 0 0 0 0 0 0 0.16 0"/>
<feBlend mode="normal" in2="shape" result="effect1_innerShadow_1_578"/>
<feColorMatrix in="SourceAlpha" type="matrix" values="0 0 0 0 0 0 0 0 0 0 0 0 0 0 0 0 0 0 127 0" result="hardAlpha"/>
<feOffset dy="8"/>
<feGaussianBlur stdDeviation="8"/>
<feComposite in2="hardAlpha" operator="arithmetic" k2="-1" k3="1"/>
<feColorMatrix type="matrix" values="0 0 0 0 0 0 0 0 0 0 0 0 0 0 0 0 0 0 0.12 0"/>
<feBlend mode="normal" in2="effect1_innerShadow_1_578" result="effect2_innerShadow_1_578"/>
<feColorMatrix in="SourceAlpha" type="matrix" values="0 0 0 0 0 0 0 0 0 0 0 0 0 0 0 0 0 0 127 0" result="hardAlpha"/>
<feOffset dy="4"/>
<feGaussianBlur stdDeviation="4"/>
<feComposite in2="hardAlpha" operator="arithmetic" k2="-1" k3="1"/>
<feColorMatrix type="matrix" values="0 0 0 0 0 0 0 0 0 0 0 0 0 0 0 0 0 0 0.12 0"/>
<feBlend mode="normal" in2="effect2_innerShadow_1_578" result="effect3_innerShadow_1_578"/>
<feColorMatrix in="SourceAlpha" type="matrix" values="0 0 0 0 0 0 0 0 0 0 0 0 0 0 0 0 0 0 127 0" result="hardAlpha"/>
<feOffset dy="2"/>
<feGaussianBlur stdDeviation="2"/>
<feComposite in2="hardAlpha" operator="arithmetic" k2="-1" k3="1"/>
<feColorMatrix type="matrix" values="0 0 0 0 0 0 0 0 0 0 0 0 0 0 0 0 0 0 0.12 0"/>
<feBlend mode="normal" in2="effect3_innerShadow_1_578" result="effect4_innerShadow_1_578"/>
</filter>
</defs>
</svg>
